<svg id="call-answer" xmlns="http://www.w3.org/2000/svg" width="18.364" height="19.653" viewBox="0 0 18.364 19.653">
  <g id="Group_689" data-name="Group 689" transform="translate(0 0)">
    <g id="Group_688" data-name="Group 688" transform="translate(0 0)">
      <path id="Path_392" data-name="Path 392" d="M17.952,15.938,15.116,12.9a1.409,1.409,0,0,0-2.085.042L11.6,14.47,11.32,14.3a14.28,14.28,0,0,1-3.437-2.666A15.37,15.37,0,0,1,5.393,7.943c-.053-.1-.1-.2-.154-.3L6.2,6.621l.471-.506a1.667,1.667,0,0,0,.038-2.237L3.872.835A1.407,1.407,0,0,0,1.787.877l-.8.862.022.023A5.064,5.064,0,0,0,.351,3.009,5.477,5.477,0,0,0,.058,4.273C-.317,7.6,1.1,10.646,4.952,14.776c5.322,5.708,9.611,5.277,9.8,5.256a4.574,4.574,0,0,0,2.339-1.022l.017.017.81-.851A1.67,1.67,0,0,0,17.952,15.938Z" transform="translate(0 -0.394)" fill="#00a339"/>
    </g>
  </g>
</svg>
