<svg xmlns="http://www.w3.org/2000/svg" width="14.553" height="19.101" viewBox="0 0 14.553 19.101">
  <path id="Icon_material-lock" data-name="Icon material-lock" d="M18.734,7.867h-.91V6.048a4.548,4.548,0,0,0-9.1,0V7.867h-.91A1.825,1.825,0,0,0,6,9.686v9.1A1.825,1.825,0,0,0,7.819,20.6H18.734a1.825,1.825,0,0,0,1.819-1.819v-9.1A1.825,1.825,0,0,0,18.734,7.867Zm-5.458,8.186A1.819,1.819,0,1,1,15.1,14.234,1.825,1.825,0,0,1,13.277,16.053ZM16.1,7.867H10.457V6.048a2.82,2.82,0,0,1,5.639,0Z" transform="translate(-6 -1.5)" fill="#00a339"/>
</svg>
