<svg id="translate_1_" data-name="translate (1)" xmlns="http://www.w3.org/2000/svg" width="24.514" height="24.514" viewBox="0 0 24.514 24.514">
  <path id="Path_6604" data-name="Path 6604" d="M318.472,301.561c-.069-.231-.354-.339-.646-.339a.625.625,0,0,0-.639.339L315.7,306.4a.445.445,0,0,0-.015.077c0,.246.362.415.631.415.169,0,.3-.054.339-.2l.292-1.023h1.762l.293,1.023c.038.146.169.2.338.2.269,0,.631-.177.631-.415a.339.339,0,0,0-.015-.077Zm-1.316,3.323.669-2.362.67,2.362Zm0,0" transform="translate(-300.572 -286.8)" fill="#fff"/>
  <path id="Path_6605" data-name="Path 6605" d="M21.873,10H14.514V6.857l2.392-1.708a.718.718,0,0,0,0-1.169L14.485,2.251A2.645,2.645,0,0,0,11.873,0H2.641A2.644,2.644,0,0,0,0,2.641v9.231a2.644,2.644,0,0,0,2.641,2.641H10v3.143L7.609,19.366a.718.718,0,0,0,0,1.169l2.421,1.729a2.645,2.645,0,0,0,2.612,2.251h9.231a2.644,2.644,0,0,0,2.641-2.641V12.642A2.644,2.644,0,0,0,21.873,10ZM2.641,13.078a1.206,1.206,0,0,1-1.205-1.205V2.641a1.206,1.206,0,0,1,1.205-1.2h9.231a1.206,1.206,0,0,1,1.2,1.2.718.718,0,0,0,.3.584l1.874,1.339L13.378,5.9a.718.718,0,0,0-.3.584V10h-.435A2.644,2.644,0,0,0,10,12.642v.436Zm20.437,8.8a1.206,1.206,0,0,1-1.2,1.205H12.642a1.206,1.206,0,0,1-1.2-1.205.718.718,0,0,0-.3-.584L9.262,19.95l1.874-1.339a.718.718,0,0,0,.3-.584V12.642a1.206,1.206,0,0,1,1.2-1.205h9.231a1.206,1.206,0,0,1,1.2,1.205Zm0,0" fill="#fff"/>
  <path id="Path_6606" data-name="Path 6606" d="M101.838,94.554a.405.405,0,0,0,0-.81h-1.8v-.983a.405.405,0,1,0-.81,0v.983h-1.8a.405.405,0,0,0,0,.81h.558A3.863,3.863,0,0,0,99,96.781a3.049,3.049,0,0,1-1.571.434.405.405,0,0,0,0,.81,3.852,3.852,0,0,0,2.207-.692,3.853,3.853,0,0,0,2.207.692.405.405,0,0,0,0-.81,3.045,3.045,0,0,1-1.571-.434,3.863,3.863,0,0,0,1.013-2.227Zm-2.207,1.721a3.059,3.059,0,0,1-.832-1.721h1.664A3.058,3.058,0,0,1,99.631,96.275Zm0,0" transform="translate(-92.374 -87.934)" fill="#fff"/>
</svg>
